name kv08_filtered_grf.mot
datacolumns 37
datarows 11
range 1.176500 1.181500
endheader
time	1_ground_force_vx	1_ground_force_vy	1_ground_force_vz	1_ground_force_px	1_ground_force_py	1_ground_force_pz	1_ground_torque_x	1_ground_torque_y	1_ground_torque_z	2_ground_force_vx	2_ground_force_vy	2_ground_force_vz	2_ground_force_px	2_ground_force_py	2_ground_force_pz	2_ground_torque_x	2_ground_torque_y	2_ground_torque_z	3_ground_force_vx	3_ground_force_vy	3_ground_force_vz	3_ground_force_px	3_ground_force_py	3_ground_force_pz	3_ground_torque_x	3_ground_torque_y	3_ground_torque_z	4_ground_force_vx	4_ground_force_vy	4_ground_force_vz	4_ground_force_px	4_ground_force_py	4_ground_force_pz	4_ground_torque_x	4_ground_torque_y	4_ground_torque_z
            1.176500	          -69.907722	          748.125735	          157.039590	            0.134173	            0.000000	            0.227006	           -1.225613	           13.116041	            2.753197	           75.742060	          665.372568	          183.472203	           -0.154694	            0.000000	            0.205845	           -0.313417	           -2.753279	           -0.759199	           16.472681	            0.972298	           -0.796942	            0.380031	            1.022612	            1.091936	           -0.076815	           -0.004534	            0.003716	          -11.095471	            0.378977	           -0.598433	           -0.419450	            1.021862	            1.091230	            0.022245	           -0.000760	            0.001200
            1.177000	          -69.947897	          748.437014	          156.381450	            0.134197	            0.000000	            0.227000	           -1.225248	           13.110056	            2.739268	           75.565188	          664.890295	          182.192973	           -0.154674	            0.000000	            0.205876	           -0.321561	           -2.829378	           -0.775305	           16.458308	            0.977343	           -0.772643	            0.380033	            1.022612	            1.091937	           -0.077053	           -0.004576	            0.003617	          -11.114145	            0.382814	           -0.599009	           -0.419452	            1.021861	            1.091229	            0.022145	           -0.000763	            0.001194
            1.177500	          -69.985704	          748.673906	          155.744325	            0.134221	            0.000000	            0.226993	           -1.224835	           13.102700	            2.725714	           75.367986	          664.401427	          180.908263	           -0.154649	            0.000000	            0.205907	           -0.330262	           -2.911402	           -0.792739	           16.444482	            0.982528	           -0.747614	            0.380035	            1.022611	            1.091938	           -0.077292	           -0.004618	            0.003514	          -11.131452	            0.386246	           -0.599871	           -0.419453	            1.021859	            1.091228	            0.022023	           -0.000764	            0.001187
            1.178000	          -70.021206	          748.836440	          155.127519	            0.134244	            0.000000	            0.226986	           -1.224385	           13.094089	            2.712546	           75.154998	          663.904441	          179.621603	           -0.154620	            0.000000	            0.205939	           -0.339361	           -2.997846	           -0.811078	           16.431431	            0.987852	           -0.721925	            0.380037	            1.022611	            1.091939	           -0.077529	           -0.004661	            0.003406	          -11.147288	            0.389254	           -0.601014	           -0.419455	            1.021857	            1.091227	            0.021880	           -0.000764	            0.001180
            1.178500	          -70.054458	          748.925057	          154.530301	            0.134267	            0.000000	            0.226978	           -1.223909	           13.084341	            2.699772	           74.931010	          663.397837	          178.336570	           -0.154588	            0.000000	            0.205970	           -0.348693	           -3.087139	           -0.829894	           16.419372	            0.993306	           -0.695763	            0.380039	            1.022610	            1.091939	           -0.077763	           -0.004704	            0.003295	          -11.161559	            0.391827	           -0.602426	           -0.419456	            1.021855	            1.091226	            0.021714	           -0.000762	            0.001172
            1.179000	          -70.085499	          748.940612	          153.951912	            0.134290	            0.000000	            0.226971	           -1.223418	           13.073569	            2.687397	           74.700949	          662.880144	          177.056728	           -0.154554	            0.000000	            0.206001	           -0.358096	           -3.177667	           -0.848762	           16.408516	            0.998877	           -0.669255	            0.380041	            1.022610	            1.091940	           -0.077991	           -0.004748	            0.003181	          -11.174182	            0.393966	           -0.604093	           -0.419458	            1.021853	            1.091225	            0.021526	           -0.000759	            0.001164
            1.179500	          -70.114353	          748.884380	          153.391574	            0.134313	            0.000000	            0.226966	           -1.222920	           13.061889	            2.675425	           74.469791	          662.349926	          175.785567	           -0.154520	            0.000000	            0.206032	           -0.367408	           -3.267806	           -0.867265	           16.399064	            1.004548	           -0.642524	            0.380043	            1.022610	            1.091941	           -0.078213	           -0.004791	            0.003064	          -11.185081	            0.395678	           -0.605993	           -0.419460	            1.021852	            1.091224	            0.021316	           -0.000754	            0.001155
            1.180000	          -70.141024	          748.758054	          152.848494	            0.134337	            0.000000	            0.226962	           -1.222423	           13.049410	            2.663855	           74.242462	          661.805783	          174.526446	           -0.154487	            0.000000	            0.206062	           -0.376476	           -3.355948	           -0.885005	           16.391203	            1.010297	           -0.615694	            0.380046	            1.022609	            1.091941	           -0.078426	           -0.004834	            0.002946	          -11.194192	            0.396980	           -0.608099	           -0.419461	            1.021850	            1.091223	            0.021083	           -0.000748	            0.001145
            1.180500	          -70.165492	          748.563755	          152.321871	            0.134361	            0.000000	            0.226960	           -1.221932	           13.036240	            2.652686	           74.023746	          661.246358	          173.282536	           -0.154455	            0.000000	            0.206091	           -0.385153	           -3.440531	           -0.901606	           16.385105	            1.016098	           -0.588859	            0.380047	            1.022609	            1.091942	           -0.078631	           -0.004876	            0.002826	          -11.201460	            0.397895	           -0.610361	           -0.419463	            1.021847	            1.091223	            0.020830	           -0.000740	            0.001135
            1.181000	          -70.187719	          748.304038	          151.810895	            0.134387	            0.000000	            0.226961	           -1.221453	           13.022481	            2.641913	           73.818186	          660.670345	          172.056765	           -0.154427	            0.000000	            0.206119	           -0.393305	           -3.520063	           -0.916721	           16.380922	            1.021921	           -0.562154	            0.380049	            1.022609	            1.091942	           -0.078826	           -0.004918	            0.002705	          -11.206837	            0.398456	           -0.612760	           -0.419465	            1.021845	            1.091222	            0.020556	           -0.000731	            0.001124
            1.181500	          -70.207645	          747.981890	          151.314754	            0.134413	            0.000000	            0.226964	           -1.220989	           13.008233	            2.631531	           73.630005	          660.076487	          170.851771	           -0.154401	            0.000000	            0.206146	           -0.400808	           -3.593154	           -0.930039	           16.378785	            1.027732	           -0.535685	            0.380051	            1.022609	            1.091942	           -0.079012	           -0.004958	            0.002584	          -11.210287	            0.398701	           -0.615254	           -0.419467	            1.021843	            1.091221	            0.020263	           -0.000721	            0.001112
